<svg xmlns="http://www.w3.org/2000/svg" viewBox="0 0 38 38"><g id="Layer_2" data-name="Layer 2">
<defs><style>#Layer_2{fill:#606060;}</style></defs><g id="Layer_1-2" data-name="Layer 1">
<path d="M35,0H3A3,3,0,0,0,0,3V35a3,3,0,0,0,3,3H35a3,3,0,0,0,3-3V3A3,3,0,0,0,35,0ZM3,2H35a1,1,0,0,1,1,1V23.64L30.36,18a2,2,0,0,0-2.87,0L23,22.87l-8.39-9.16a2,2,0,0,0-2.83-.13l-.06.06L2,23.39V3A1,1,0,0,1,3,2ZM35,36H3a1,1,0,0,1-1-1V26.21S13.07,15.07,13.11,15.05L25.53,28.63a1,1,0,1,0,1.56-1.26L27,27.28l-2.68-2.93L29,19.43l7,7V35A1,1,0,0,1,35,36ZM21.49,13A3.5,3.5,0,1,0,18,9.5,3.5,3.5,0,0,0,21.49,13Zm0-5A1.5,1.5,0,1,1,20,9.5,1.5,1.5,0,0,1,21.49,8Z"/></g></g></svg>