<svg xmlns="http://www.w3.org/2000/svg" viewBox="0 0 45 45"><defs><style>.cls-1{fill:#606060;}</style></defs><g id="Layer_2" data-name="Layer 2"><g id="Layer_1-2" data-name="Layer 1"><path class="cls-1" d="M22.5,0A22.5,22.5,0,1,0,45,22.5,22.5,22.5,0,0,0,22.5,0Zm0,41.4A18.9,18.9,0,1,1,41.4,22.5,18.92,18.92,0,0,1,22.5,41.4Zm0-35.17A16.27,16.27,0,1,0,38.77,22.5,16.29,16.29,0,0,0,22.5,6.23Zm6.14,20.2a4.58,4.58,0,0,1-4.55,4.7H24a4.68,4.68,0,0,0-.06,1c0,.57-.66,1-1.48,1s-1.48-.46-1.48-1a5.12,5.12,0,0,0-.05-1h-.05a4.42,4.42,0,0,1-4-2.22,1.52,1.52,0,0,1,.86-2.23c.82-.22,1.52-.28,1.55-.15a2.53,2.53,0,0,0,.52,1.1,1.12,1.12,0,0,0,.88.35h3.52a1.26,1.26,0,0,0,.9-.39,1.92,1.92,0,0,0,.37-1.33v-.45a1.17,1.17,0,0,0-.81-1.15l-5.46-1.49a4.15,4.15,0,0,1-2.91-4.08v-.81a4.26,4.26,0,0,1,4.4-4.4h.14a2.15,2.15,0,0,0,.13-1c0-.56.66-1,1.47-1s1.47.45,1.47,1a2.83,2.83,0,0,0,.1,1h.1a4.75,4.75,0,0,1,3.92,2.19,1.5,1.5,0,0,1-.82,2.23c-.82.22-1.51.3-1.55.17a1.55,1.55,0,0,0-.08-.23c-.3-.81-.61-1.22-1.3-1.22H20.81a1.33,1.33,0,0,0-.93.38,1.49,1.49,0,0,0-.39,1.14V19a1.5,1.5,0,0,0,1.29,1.54c.76.17,4.55,1.15,4.55,1.15a4.3,4.3,0,0,1,3.31,4.18Z"/></g></g></svg>