<svg xmlns="http://www.w3.org/2000/svg" viewBox="0 0 47.25 30.13"><g id="Layer_2" data-name="Layer 2"><g id="Layer_1-2" data-name="Layer 1"><path d="M47.22,10.08l-2-8.86a.84.84,0,0,0-1-.63l-8.86,2c-.45.1-.5.39-.11.63L38.49,5.3a.83.83,0,0,1,.26,1.15l-5.52,8.81c-.24.39-.59.36-.76-.06L26.75,1.29a2.05,2.05,0,0,0-2-1.29,2.1,2.1,0,0,0-1.91,1.42l-6,17.88c-.15.44-.48.48-.74.11l-4.74-6.82a2.09,2.09,0,0,0-3.56.21L.24,27.07a2.09,2.09,0,0,0,.86,2.82,2,2,0,0,0,1,.24A2.06,2.06,0,0,0,3.92,29L9.51,18.51a.47.47,0,0,1,.87-.05l5.16,7.43a2.08,2.08,0,0,0,3.69-.52L24.77,8.86c.15-.44.41-.45.58,0l5.14,12.49a2.09,2.09,0,0,0,3.7.32L42.3,8.7a.83.83,0,0,1,1.15-.26l3.25,2C47.09,10.7,47.32,10.53,47.22,10.08Z"/></g></g></svg>